<?xml version="1.0" encoding="utf-8"?>
<!-- Generator: Adobe Illustrator 26.5.0, SVG Export Plug-In . SVG Version: 6.00 Build 0)  -->
<svg version="1.1" id="Layer_1" xmlns="http://www.w3.org/2000/svg" xmlns:xlink="http://www.w3.org/1999/xlink" x="0px" y="0px"
	 viewBox="0 0 576 512" style="enable-background:new 0 0 576 512;" xml:space="preserve">
<style type="text/css">
	.st0{fill:#FFFFFF;}
</style>
<path class="st0" d="M312,24v10.5c6.4,1.2,12.6,2.7,18.2,4.2c12.8,3.4,20.4,16.6,17,29.4s-16.6,20.4-29.4,17
	c-10.9-2.9-21.1-4.9-30.2-5c-7.3-0.1-14.7,1.7-19.4,4.4c-2.1,1.3-3.1,2.4-3.5,3c-0.3,0.5-0.7,1.2-0.7,2.8c0,0.3,0,0.5,0,0.6
	c0.2,0.2,0.9,1.2,3.3,2.6c5.8,3.5,14.4,6.2,27.4,10.1l0.9,0.3l0,0c11.1,3.3,25.9,7.8,37.9,15.3c13.7,8.6,26.1,22.9,26.4,44.9
	c0.3,22.5-11.4,38.9-26.7,48.5c-6.7,4.1-13.9,7-21.3,8.8V232c0,13.3-10.7,24-24,24s-24-10.7-24-24v-11.4c-9.5-2.3-18.2-5.3-25.6-7.8
	c-2.1-0.7-4.1-1.4-6-2c-12.6-4.2-19.4-17.8-15.2-30.4s17.8-19.4,30.4-15.2c2.6,0.9,5,1.7,7.3,2.5c13.6,4.6,23.4,7.9,33.9,8.3
	c8,0.3,15.1-1.6,19.2-4.1c1.9-1.2,2.8-2.2,3.2-2.9c0.4-0.6,0.9-1.8,0.8-4.1v-0.2c0-1,0-2.1-4-4.6c-5.7-3.6-14.3-6.4-27.1-10.3
	l-1.9-0.6c-10.8-3.2-25-7.5-36.4-14.4c-13.5-8.1-26.5-22-26.6-44.1c-0.1-22.9,12.9-38.6,27.7-47.4c6.4-3.8,13.3-6.4,20.2-8.2V24
	c0-13.3,10.7-24,24-24s24,10.7,24,24H312z M568.2,336.3c13.1,17.8,9.3,42.8-8.5,55.9l-126.6,93.3c-23.4,17.2-51.6,26.5-80.7,26.5
	H192H32c-17.7,0-32-14.3-32-32v-64c0-17.7,14.3-32,32-32h36.8l44.9-36c22.7-18.2,50.9-28,80-28H272h16h64c17.7,0,32,14.3,32,32
	s-14.3,32-32,32h-64h-16c-8.8,0-16,7.2-16,16s7.2,16,16,16h120.6l119.7-88.2C530.1,314.7,555.1,318.5,568.2,336.3z M193.6,384
	L193.6,384h-0.9C193,384,193.3,384,193.6,384z"/>
</svg>
